<?xml version="1.0" encoding="utf-8"?>
<!-- Generator: Adobe Illustrator 24.2.3, SVG Export Plug-In . SVG Version: 6.00 Build 0)  -->
<svg version="1.1" id="Laag_1" xmlns="http://www.w3.org/2000/svg" xmlns:xlink="http://www.w3.org/1999/xlink" x="0px" y="0px"
	 viewBox="0 0 537.04 92.68" style="enable-background:new 0 0 537.04 92.68;" xml:space="preserve">
<style type="text/css">
	.st0{fill:#FFFFFF;}
</style>
<g>
	<g>
		<polygon class="st0" points="135.62,79.96 25.07,79.96 25.07,60.95 12.46,60.95 12.46,92.58 148.24,92.58 148.24,60.95 
			135.62,60.95 		"/>
		<polygon class="st0" points="25.07,12.62 135.62,12.62 135.62,30.05 148.24,30.05 148.24,0.01 12.46,0.01 12.46,30.05 
			25.07,30.05 		"/>
		<path class="st0" d="M148.24,38.37c-1.21,0.66-2.41,1.34-3.61,2.03c-3.08,1.76-6.47,3.69-9.01,4.43c-0.67,0.2-1.3,0.33-1.83,0.33
			c-2.52,0-6.94-2.53-10.84-4.76c-5.25-3.01-10.68-6.1-15.83-6.16v-0.01c-0.03,0-0.05,0.01-0.08,0.01c-0.03,0-0.05-0.01-0.08-0.01
			v0.01c-5.14,0.06-10.57,3.16-15.83,6.16c-3.9,2.23-8.32,4.76-10.84,4.76c-2.52,0-6.94-2.53-10.84-4.76
			c-5.26-3.01-10.68-6.1-15.83-6.16v-0.01c-0.03,0-0.05,0.01-0.08,0.01c-0.03,0-0.05-0.01-0.08-0.01v0.01
			c-5.14,0.06-10.57,3.16-15.83,6.16c-3.9,2.23-8.32,4.76-10.84,4.76c-0.5,0-1.08-0.12-1.71-0.3c-2.55-0.71-6-2.67-9.13-4.47
			c-1.15-0.66-2.32-1.32-3.48-1.96C8.3,36.15,4.06,34.22,0,34.22v8.49c2.93,0,7.62,2.69,11.76,5.05c0.25,0.14,0.49,0.28,0.74,0.42
			c4.39,2.51,8.58,4.81,12.61,5.34c0.57,0.08,1.14,0.12,1.71,0.12c4.78,0,9.77-2.86,15.06-5.88c4.11-2.35,8.75-5,11.69-5.05
			c2.93,0.04,7.58,2.7,11.69,5.05c5.29,3.03,10.28,5.88,15.06,5.88c4.78,0,9.77-2.86,15.06-5.88c4.11-2.35,8.75-5,11.69-5.05
			c2.93,0.04,7.58,2.7,11.69,5.05c5.29,3.03,10.28,5.88,15.06,5.88c0.61,0,1.22-0.05,1.83-0.13c4.03-0.57,8.22-2.89,12.61-5.4
			c0.2-0.12,0.41-0.23,0.61-0.35c4.14-2.37,8.83-5.05,11.76-5.05v-4.25v-4.25C156.59,34.22,152.39,36.11,148.24,38.37z"/>
	</g>
	<g>
		<path class="st0" d="M184.71,21.22V0.15h8.78c0.93,0,1.79,0.19,2.57,0.58s1.45,0.9,2.02,1.54c0.56,0.64,1,1.37,1.32,2.17
			s0.47,1.62,0.47,2.45c0,0.87-0.15,1.71-0.45,2.52c-0.3,0.81-0.72,1.53-1.26,2.17c-0.54,0.63-1.2,1.14-1.96,1.51
			c-0.76,0.38-1.61,0.56-2.54,0.56h-6.29v7.57H184.71z M187.38,11.28h6.14c0.55,0,1.05-0.11,1.5-0.34c0.45-0.23,0.83-0.54,1.14-0.95
			c0.32-0.41,0.56-0.88,0.74-1.41c0.18-0.53,0.27-1.1,0.27-1.69c0-0.61-0.1-1.19-0.31-1.72c-0.21-0.53-0.49-1-0.83-1.4
			c-0.35-0.4-0.75-0.7-1.22-0.92c-0.47-0.22-0.96-0.33-1.47-0.33h-5.96V11.28z"/>
		<path class="st0" d="M210.62,21.22V0.15h9.02c0.93,0,1.79,0.19,2.57,0.58s1.45,0.9,2.02,1.54c0.56,0.64,1,1.37,1.32,2.17
			s0.47,1.62,0.47,2.45c0,0.73-0.1,1.44-0.31,2.12c-0.21,0.68-0.5,1.3-0.89,1.85c-0.39,0.55-0.85,1.03-1.4,1.42
			c-0.54,0.4-1.15,0.68-1.83,0.86l5.1,8.07h-3.03l-4.81-7.57h-5.58v7.57H210.62z M213.29,11.28h6.38c0.55,0,1.05-0.12,1.5-0.36
			c0.44-0.24,0.83-0.56,1.14-0.96c0.32-0.41,0.56-0.88,0.74-1.41c0.18-0.53,0.27-1.09,0.27-1.66c0-0.59-0.1-1.15-0.31-1.68
			c-0.21-0.52-0.49-0.99-0.83-1.4c-0.35-0.41-0.75-0.72-1.22-0.95c-0.46-0.23-0.96-0.34-1.47-0.34h-6.2V11.28z"/>
		<path class="st0" d="M246.08,21.37c-1.48,0-2.83-0.3-4.05-0.91c-1.22-0.6-2.26-1.4-3.13-2.4c-0.87-1-1.54-2.14-2.02-3.43
			s-0.71-2.6-0.71-3.95c0-1.4,0.25-2.75,0.76-4.04c0.5-1.29,1.2-2.42,2.09-3.41c0.89-0.99,1.94-1.78,3.16-2.36
			C243.4,0.29,244.72,0,246.14,0c1.48,0,2.83,0.31,4.04,0.94c1.21,0.62,2.25,1.44,3.12,2.45c0.87,1.01,1.54,2.15,2.02,3.43
			c0.47,1.28,0.71,2.58,0.71,3.9c0,1.4-0.25,2.75-0.76,4.04c-0.5,1.29-1.2,2.42-2.08,3.4c-0.88,0.98-1.93,1.76-3.15,2.34
			C248.83,21.08,247.51,21.37,246.08,21.37z M238.87,10.68c0,1.07,0.17,2.1,0.52,3.1c0.35,1,0.83,1.88,1.47,2.66
			c0.63,0.77,1.39,1.39,2.29,1.84s1.88,0.68,2.97,0.68c1.13,0,2.14-0.24,3.03-0.73s1.65-1.12,2.27-1.9s1.1-1.67,1.42-2.66
			c0.33-0.99,0.49-1.99,0.49-3c0-1.07-0.17-2.1-0.52-3.1c-0.35-1-0.84-1.88-1.48-2.64c-0.64-0.76-1.41-1.37-2.29-1.83
			c-0.88-0.46-1.86-0.68-2.92-0.68c-1.13,0-2.14,0.24-3.03,0.71c-0.89,0.47-1.65,1.1-2.27,1.87c-0.62,0.77-1.1,1.65-1.44,2.64
			C239.04,8.65,238.87,9.66,238.87,10.68z"/>
		<path class="st0" d="M264.99,18.07c0.4,0.28,0.93,0.52,1.6,0.74c0.67,0.22,1.43,0.33,2.29,0.33c1.01,0,1.81-0.18,2.4-0.53
			c0.59-0.36,1.04-0.89,1.35-1.59s0.51-1.57,0.61-2.6c0.1-1.03,0.15-2.22,0.15-3.56V0.15h2.67v10.71c0,1.6-0.07,3.06-0.22,4.38
			c-0.15,1.32-0.47,2.44-0.98,3.37c-0.5,0.93-1.23,1.65-2.17,2.17c-0.94,0.51-2.21,0.77-3.81,0.77c-1.78,0-3.3-0.44-4.57-1.31
			L264.99,18.07z"/>
		<path class="st0" d="M302.59,18.85v2.37h-14.3V0.15h14.04v2.37h-11.37v6.83h9.88v2.23h-9.88v7.27H302.59z"/>
		<path class="st0" d="M311.88,10.54c0-1.27,0.22-2.53,0.67-3.78s1.1-2.38,1.96-3.38s1.91-1.81,3.16-2.42
			c1.25-0.61,2.66-0.92,4.24-0.92c1.88,0,3.49,0.43,4.84,1.28c1.34,0.85,2.34,1.96,3,3.32L327.64,6c-0.32-0.67-0.7-1.24-1.14-1.69
			c-0.45-0.45-0.93-0.82-1.46-1.1c-0.52-0.28-1.06-0.47-1.62-0.59s-1.1-0.18-1.63-0.18c-1.17,0-2.2,0.24-3.1,0.73
			c-0.9,0.49-1.66,1.12-2.27,1.9c-0.61,0.78-1.07,1.66-1.38,2.64c-0.31,0.98-0.46,1.96-0.46,2.95c0,1.11,0.18,2.16,0.55,3.16
			c0.37,1,0.88,1.88,1.53,2.66c0.65,0.77,1.42,1.39,2.32,1.84c0.89,0.46,1.86,0.68,2.91,0.68c0.55,0,1.12-0.07,1.71-0.21
			c0.58-0.14,1.14-0.36,1.68-0.67c0.53-0.31,1.03-0.69,1.5-1.16c0.46-0.46,0.85-1.02,1.14-1.68l2.23,1.22
			c-0.34,0.79-0.81,1.49-1.41,2.09s-1.29,1.11-2.05,1.53s-1.57,0.73-2.42,0.95c-0.85,0.22-1.68,0.33-2.49,0.33
			c-1.44,0-2.77-0.32-3.98-0.95s-2.25-1.46-3.13-2.48c-0.88-1.02-1.56-2.18-2.05-3.47C312.12,13.2,311.88,11.88,311.88,10.54z"/>
		<path class="st0" d="M356.1,2.52h-7.27v18.7h-2.67V2.52h-7.27V0.15h17.21V2.52z"/>
		<path class="st0" d="M192.42,35.88h2.52l2.79,7.33l2.82-7.33h2.52l-3.65,9.17l3.62,8.7l7.12-17.98h2.91l-8.81,21.07h-2.31
			l-4.18-9.94l-4.21,9.94h-2.31l-8.79-21.07h2.88l7.15,17.98l3.59-8.7L192.42,35.88z"/>
		<path class="st0" d="M237.56,54.46v2.37h-14.3V35.76h14.04v2.37h-11.37v6.83h9.88v2.23h-9.88v7.27H237.56z"/>
		<path class="st0" d="M248.63,56.83V35.76h9.02c0.93,0,1.79,0.19,2.57,0.58s1.45,0.9,2.02,1.54c0.56,0.64,1,1.37,1.32,2.17
			c0.32,0.8,0.47,1.62,0.47,2.45c0,0.73-0.1,1.44-0.31,2.12c-0.21,0.68-0.5,1.3-0.89,1.86s-0.85,1.03-1.4,1.42s-1.15,0.68-1.83,0.86
			l5.1,8.07h-3.03l-4.81-7.57h-5.58v7.57H248.63z M251.31,46.89h6.38c0.55,0,1.05-0.12,1.5-0.36c0.44-0.24,0.83-0.56,1.14-0.96
			c0.32-0.41,0.56-0.88,0.74-1.41c0.18-0.53,0.27-1.09,0.27-1.66c0-0.59-0.1-1.15-0.31-1.68s-0.49-0.99-0.83-1.4
			c-0.35-0.41-0.75-0.72-1.22-0.95c-0.46-0.23-0.96-0.34-1.47-0.34h-6.2V46.89z"/>
		<path class="st0" d="M289.86,54.46v2.37h-14.3V35.76h14.04v2.37h-11.37v6.83h9.88v2.23h-9.88v7.27H289.86z"/>
		<path class="st0" d="M300.93,56.83V35.76h2.67v18.7h11.75v2.37H300.93z"/>
		<path class="st0" d="M325.68,56.83V35.76h7.3c1.68,0,3.16,0.28,4.44,0.83c1.28,0.55,2.34,1.31,3.19,2.26
			c0.85,0.95,1.49,2.06,1.91,3.34c0.42,1.28,0.64,2.64,0.64,4.08c0,1.6-0.24,3.05-0.71,4.35c-0.47,1.3-1.16,2.4-2.05,3.32
			s-1.96,1.63-3.22,2.14c-1.26,0.5-2.66,0.76-4.2,0.76H325.68z M340.46,46.27c0-1.19-0.16-2.28-0.49-3.28
			c-0.33-1-0.81-1.85-1.45-2.57c-0.64-0.71-1.43-1.27-2.36-1.68c-0.93-0.41-1.99-0.61-3.18-0.61h-4.63v16.32h4.63
			c1.21,0,2.28-0.21,3.22-0.62c0.94-0.42,1.72-0.99,2.34-1.72c0.62-0.73,1.1-1.6,1.42-2.6C340.29,48.52,340.46,47.44,340.46,46.27z"
			/>
		<path class="st0" d="M361.32,35.88h2.52l2.79,7.33l2.82-7.33h2.52l-3.65,9.17l3.62,8.7l7.12-17.98h2.91l-8.81,21.07h-2.32
			l-4.18-9.94l-4.21,9.94h-2.32l-8.78-21.07h2.88l7.15,17.98l3.59-8.7L361.32,35.88z"/>
		<path class="st0" d="M396.82,35.76h2.26l8.61,21.07h-2.85l-2.49-6.17h-8.84l-2.46,6.17h-2.85L396.82,35.76z M401.74,48.58
			l-3.8-9.73l-3.92,9.73H401.74z"/>
		<path class="st0" d="M431.12,38.14h-7.27v18.7h-2.67v-18.7h-7.27v-2.37h17.21V38.14z"/>
		<path class="st0" d="M455.88,54.46v2.37h-14.3V35.76h14.04v2.37h-11.37v6.83h9.88v2.23h-9.88v7.27H455.88z"/>
		<path class="st0" d="M466.94,56.83V35.76h9.02c0.93,0,1.79,0.19,2.57,0.58c0.78,0.39,1.45,0.9,2.02,1.54
			c0.56,0.64,1,1.37,1.32,2.17c0.32,0.8,0.48,1.62,0.48,2.45c0,0.73-0.1,1.44-0.31,2.12c-0.21,0.68-0.5,1.3-0.89,1.86
			s-0.85,1.03-1.39,1.42c-0.54,0.4-1.15,0.68-1.83,0.86l5.1,8.07H480l-4.81-7.57h-5.58v7.57H466.94z M469.62,46.89H476
			c0.55,0,1.05-0.12,1.5-0.36s0.83-0.56,1.14-0.96s0.56-0.88,0.74-1.41c0.18-0.53,0.27-1.09,0.27-1.66c0-0.59-0.1-1.15-0.31-1.68
			s-0.49-0.99-0.83-1.4c-0.35-0.41-0.75-0.72-1.22-0.95c-0.46-0.23-0.96-0.34-1.47-0.34h-6.2V46.89z"/>
		<path class="st0" d="M508.17,54.46v2.37h-14.3V35.76h14.04v2.37h-11.37v6.83h9.88v2.23h-9.88v7.27H508.17z"/>
		<path class="st0" d="M521.91,40.75v16.08h-2.67V35.76h2.08l13.06,16.41V35.79h2.67v21.04h-2.25L521.91,40.75z"/>
		<path class="st0" d="M193.29,88.97c0.97,0,1.79-0.2,2.45-0.59c0.66-0.4,1.2-0.91,1.6-1.54c0.41-0.63,0.69-1.36,0.86-2.18
			s0.25-1.67,0.25-2.54V71.38h4.07v10.74c0,1.44-0.17,2.8-0.52,4.07c-0.35,1.27-0.89,2.37-1.63,3.32c-0.74,0.95-1.7,1.7-2.86,2.26
			c-1.17,0.55-2.56,0.83-4.18,0.83c-1.68,0-3.11-0.29-4.29-0.88c-1.18-0.58-2.13-1.35-2.86-2.31c-0.73-0.96-1.26-2.07-1.59-3.34
			c-0.33-1.27-0.49-2.58-0.49-3.95V71.38h4.1v10.74c0,0.89,0.08,1.75,0.25,2.57c0.17,0.82,0.46,1.55,0.86,2.18
			c0.41,0.63,0.93,1.14,1.59,1.53S192.34,88.97,193.29,88.97z"/>
		<path class="st0" d="M214.06,92.45V71.38h9.32c0.97,0,1.86,0.2,2.69,0.61s1.53,0.94,2.12,1.6c0.59,0.66,1.06,1.42,1.4,2.26
			c0.34,0.84,0.5,1.69,0.5,2.54c0,1.37-0.34,2.61-1.02,3.72c-0.68,1.12-1.61,1.92-2.78,2.42l4.81,7.92h-4.6l-4.3-7.06h-4.04v7.06
			H214.06z M218.16,81.79h5.13c0.38,0,0.73-0.09,1.05-0.27c0.33-0.18,0.61-0.42,0.85-0.73s0.42-0.67,0.56-1.08
			c0.14-0.42,0.21-0.86,0.21-1.34c0-0.49-0.08-0.95-0.24-1.37c-0.16-0.42-0.37-0.78-0.64-1.08c-0.27-0.31-0.57-0.54-0.92-0.71
			c-0.35-0.17-0.7-0.25-1.05-0.25h-4.96V81.79z"/>
		<path class="st0" d="M258.19,87.02c0,0.89-0.18,1.67-0.53,2.34c-0.36,0.67-0.85,1.24-1.47,1.69s-1.35,0.8-2.17,1.04
			c-0.82,0.24-1.7,0.36-2.63,0.36h-10.18V71.38h11.28c0.73,0,1.4,0.16,1.99,0.47c0.59,0.32,1.1,0.73,1.51,1.23
			c0.42,0.5,0.74,1.08,0.96,1.72c0.23,0.64,0.34,1.29,0.34,1.94c0,1.03-0.26,1.99-0.77,2.89s-1.27,1.57-2.25,2
			c1.21,0.36,2.16,0.99,2.86,1.91S258.19,85.63,258.19,87.02z M245.31,74.88v5.31h5.46c0.69,0,1.28-0.24,1.77-0.71
			c0.48-0.48,0.73-1.13,0.73-1.96c0-0.81-0.22-1.45-0.67-1.93c-0.45-0.47-0.99-0.71-1.65-0.71H245.31z M254.07,86.24
			c0-0.38-0.06-0.74-0.19-1.08c-0.13-0.35-0.3-0.65-0.52-0.91c-0.22-0.26-0.48-0.46-0.77-0.61c-0.3-0.15-0.62-0.22-0.98-0.22h-6.29
			v5.55h6.08c0.38,0,0.73-0.07,1.05-0.21c0.33-0.14,0.61-0.33,0.85-0.58c0.24-0.25,0.42-0.54,0.56-0.88
			C254,86.98,254.07,86.62,254.07,86.24z"/>
		<path class="st0" d="M274.36,71.38h3.62L286,92.45h-4.21l-1.96-5.25h-7.36l-1.93,5.25h-4.21L274.36,71.38z M279.08,84.31
			l-2.91-8.28l-3.03,8.28H279.08z"/>
		<path class="st0" d="M299.83,78.94v13.5h-4.1V71.38h3.18l10.98,13.83V71.4h4.1v21.04h-3.32L299.83,78.94z"/>
		<path class="st0" d="M340.34,92.45V71.38h7.66c1.72,0,3.23,0.28,4.53,0.83c1.29,0.55,2.38,1.31,3.25,2.26
			c0.87,0.95,1.52,2.06,1.96,3.34c0.44,1.28,0.65,2.64,0.65,4.08c0,1.6-0.24,3.05-0.73,4.35c-0.48,1.3-1.18,2.4-2.09,3.32
			c-0.91,0.92-2,1.63-3.28,2.14c-1.28,0.5-2.71,0.76-4.29,0.76H340.34z M354.26,81.88c0-1.01-0.14-1.94-0.42-2.79
			c-0.28-0.85-0.68-1.58-1.22-2.2s-1.19-1.09-1.97-1.42c-0.78-0.34-1.67-0.5-2.66-0.5h-3.56v13.89h3.56c1.01,0,1.9-0.18,2.69-0.53
			c0.78-0.36,1.43-0.85,1.96-1.47c0.52-0.62,0.92-1.36,1.2-2.21C354.12,83.79,354.26,82.87,354.26,81.88z"/>
		<path class="st0" d="M383.64,88.86v3.59h-14.63V71.38h14.36v3.59H373.1v5.08h8.87v3.32h-8.87v5.49H383.64z"/>
		<path class="st0" d="M394.26,92.45V71.38h4.1v17.48h10.74v3.59H394.26z"/>
		<path class="st0" d="M431.27,74.97h-6.74v17.48h-4.07V74.97h-6.74v-3.59h17.54V74.97z"/>
		<path class="st0" d="M445.22,71.38h3.62l8.01,21.07h-4.21l-1.96-5.25h-7.36l-1.93,5.25h-4.21L445.22,71.38z M449.94,84.31
			l-2.91-8.28L444,84.31H449.94z"/>
		<path class="st0" d="M478.82,76.9c-0.14-0.14-0.39-0.33-0.76-0.56s-0.81-0.47-1.34-0.7s-1.09-0.42-1.71-0.58
			c-0.61-0.16-1.24-0.24-1.87-0.24c-1.13,0-1.97,0.21-2.52,0.62c-0.55,0.42-0.83,1-0.83,1.75c0,0.44,0.1,0.8,0.31,1.08
			c0.21,0.29,0.51,0.54,0.91,0.76s0.9,0.42,1.5,0.59c0.6,0.18,1.3,0.37,2.09,0.56c1.03,0.28,1.96,0.57,2.8,0.89s1.55,0.71,2.14,1.19
			c0.58,0.47,1.03,1.04,1.35,1.71s0.47,1.48,0.47,2.45c0,1.13-0.21,2.09-0.64,2.89c-0.43,0.8-1,1.45-1.72,1.94
			c-0.72,0.5-1.55,0.86-2.49,1.08c-0.94,0.23-1.92,0.34-2.95,0.34c-1.58,0-3.15-0.24-4.69-0.71s-2.93-1.15-4.15-2.02l1.81-3.53
			c0.18,0.18,0.5,0.41,0.96,0.7c0.46,0.29,1.01,0.57,1.65,0.86c0.63,0.29,1.33,0.53,2.11,0.73c0.77,0.2,1.56,0.3,2.38,0.3
			c2.25,0,3.38-0.72,3.38-2.17c0-0.46-0.13-0.84-0.39-1.16c-0.26-0.32-0.62-0.59-1.1-0.83c-0.48-0.24-1.05-0.46-1.72-0.65
			c-0.67-0.2-1.42-0.42-2.26-0.65c-1.01-0.28-1.88-0.58-2.63-0.91s-1.36-0.71-1.86-1.16c-0.49-0.45-0.87-0.96-1.11-1.54
			c-0.25-0.58-0.37-1.28-0.37-2.09c0-1.07,0.2-2.02,0.59-2.85c0.4-0.83,0.94-1.52,1.65-2.08c0.7-0.55,1.52-0.97,2.45-1.26
			c0.93-0.29,1.93-0.43,3-0.43c1.48,0,2.85,0.23,4.1,0.7c1.25,0.46,2.33,1.01,3.26,1.65L478.82,76.9z"/>
	</g>
</g>
</svg>
